<?xml version="1.0" standalone="no"?>
<!DOCTYPE svg PUBLIC "-//W3C//DTD SVG 20010904//EN"
 "http://www.w3.org/TR/2001/REC-SVG-20010904/DTD/svg10.dtd">
<svg version="1.0" xmlns="http://www.w3.org/2000/svg"
 width="90.000000pt" height="21.000000pt" viewBox="0 0 90.000000 21.000000"
 preserveAspectRatio="xMidYMid meet">

<g transform="translate(0.000000,21.000000) scale(0.100000,-0.100000)"
fill="#000000" stroke="none">
<path d="M188 184 c-15 -8 -32 -23 -38 -34 -13 -24 -13 -150 0 -150 6 0 10 28
10 64 0 72 16 101 62 112 22 5 33 0 58 -24 27 -27 30 -37 30 -92 0 -38 4 -59
10 -55 17 10 12 114 -7 145 -28 48 -76 61 -125 34z"/>
<path d="M415 191 c-86 -36 -75 -166 16 -186 32 -7 83 16 99 44 13 25 13 77 0
102 -11 20 -60 49 -82 48 -7 0 -22 -4 -33 -8z m88 -43 c36 -42 11 -110 -45
-124 -22 -5 -33 0 -58 24 -34 34 -37 57 -14 90 31 45 83 49 117 10z"/>
<path d="M550 188 c0 -22 64 -179 74 -181 10 -2 76 157 76 181 0 27 -18 0 -40
-60 -13 -35 -26 -67 -30 -71 -4 -5 -20 23 -36 63 -27 69 -44 95 -44 68z"/>
<path d="M763 186 c-38 -17 -53 -43 -53 -89 0 -75 71 -116 135 -78 35 20 35
20 35 1 0 -11 5 -20 11 -20 8 0 10 23 7 70 -3 58 -8 74 -28 94 -32 32 -67 39
-107 22z m95 -42 c30 -34 28 -60 -8 -96 -25 -24 -36 -29 -58 -24 -34 9 -62 41
-62 73 0 77 75 104 128 47z"/>
<path d="M36 177 c3 -10 9 -15 12 -12 3 3 0 11 -7 18 -10 9 -11 8 -5 -6z"/>
<path d="M2 140 c0 -19 2 -27 5 -17 2 9 2 25 0 35 -3 9 -5 1 -5 -18z"/>
<path d="M40 123 c7 -15 19 -23 33 -22 20 1 20 2 2 6 -11 3 -25 13 -33 22 -11
14 -12 13 -2 -6z"/>
</g>
</svg>
